<?xml version="1.0" encoding="utf-8"?>
<!-- Generator: Adobe Illustrator 24.0.2, SVG Export Plug-In . SVG Version: 6.00 Build 0)  -->
<svg version="1.1" id="Bold" xmlns="http://www.w3.org/2000/svg" xmlns:xlink="http://www.w3.org/1999/xlink" x="0px" y="0px"
	 viewBox="0 0 512 512" style="enable-background:new 0 0 512 512;" xml:space="preserve">
<style type="text/css">
	.st0{opacity:0.5;fill:#F7A9BF;}
</style>
<path class="st0" d="M146.2,500c-16.3-0.1-32.1-5.3-45.2-14.9c-27.5-19.4-39.1-54.5-28.4-86.5l25-77.2l-65.7-48
	c-34.5-25.2-42-73.6-16.8-108.1c14.6-19.9,37.8-31.7,62.5-31.7h80.4l24.4-76.2c13.1-40.7,56.7-63.1,97.3-50
	c23.7,7.6,42.4,26.2,50,50l0,0l24.5,76.2h80.4c42.7,0,77.3,34.6,77.3,77.3c0,24.7-11.8,47.9-31.7,62.5l-65.7,48l25,77.2
	c13.1,40.7-9.2,84.3-49.8,97.4c-23.7,7.7-49.6,3.4-69.6-11.3l-64-47.1l-64,47.1C178.8,494.6,162.7,499.9,146.2,500z M77.4,197.6
	c-7.4,0-13.4,6-13.4,13.4c0,4.3,2,8.3,5.5,10.8l84.4,61.7c11.1,8.1,15.8,22.5,11.6,35.7l-32,99.2c-2.3,7,1.5,14.6,8.5,16.9
	c4.1,1.4,8.6,0.6,12.1-1.9l83-61c11.3-8.3,26.6-8.3,37.9,0l83,61c5.9,4.4,14.3,3.2,18.7-2.7c2.6-3.5,3.3-8.1,1.9-12.2l-32-99.2
	c-4.2-13.1,0.4-27.5,11.6-35.7l84.4-61.7c5.9-4.4,7.2-12.7,2.9-18.7c-2.5-3.4-6.5-5.5-10.8-5.5h-104c-13.9,0-26.2-9-30.5-22.2
	l-31.4-98.4c-2.3-7-9.8-10.9-16.8-8.6c-4.1,1.3-7.3,4.5-8.6,8.6l-31.6,98.4c-4.2,13.2-16.5,22.2-30.4,22.2H77.4z"/>
</svg>
