<?xml version="1.0" encoding="utf-8"?>
<!-- Generator: Adobe Illustrator 24.0.2, SVG Export Plug-In . SVG Version: 6.00 Build 0)  -->
<svg version="1.1" id="Layer_1" xmlns="http://www.w3.org/2000/svg" xmlns:xlink="http://www.w3.org/1999/xlink" x="0px" y="0px"
	 viewBox="0 0 512 512" style="enable-background:new 0 0 512 512;" xml:space="preserve">
<style type="text/css">
	.st0{opacity:0.35;fill:#FF92C9;}
</style>
<path class="st0" d="M475.4,313.6L387.2,512h-52.4c-32.4,0-58.7-26.3-58.7-58.7c0-8.2,1.7-16.3,5-23.8L329.8,320h-52.5
	c-58.9,0.1-106.6,47.8-106.7,106.7H128V0h42.7c0.1,58.9,47.8,106.6,106.7,106.7H448c35.3,0,64,28.7,64,64V256
	C511.9,280.7,497.7,303.1,475.4,313.6z M320.2,446.8c-3.6,8.1,0,17.6,8.1,21.2c2.1,0.9,4.3,1.4,6.5,1.4h24.7L425.8,320h-49.3
	L320.2,446.8z M469.3,170.7c0-11.8-9.6-21.3-21.3-21.3H277.3c-40.2,0-78.7-16.2-106.7-45v218.1c28-28.8,66.5-45,106.7-45H448
	c11.8,0,21.3-9.6,21.3-21.3L469.3,170.7z M36.4,335.1l48.8-48.8l-30.2-30.2L6.3,304.9L36.4,335.1z M54.3,169.7l30.2-30.2l-48-48
	L6.3,121.7L54.3,169.7z M64,192H0v42.7h64V192z"/>
</svg>
